<?xml version="1.0" encoding="UTF-8" standalone="no"?>
<!-- Created with Inkscape (http://www.inkscape.org/) -->

<svg
   xmlns:dc="http://purl.org/dc/elements/1.1/"
   xmlns:cc="http://creativecommons.org/ns#"
   xmlns:rdf="http://www.w3.org/1999/02/22-rdf-syntax-ns#"
   xmlns:svg="http://www.w3.org/2000/svg"
   xmlns="http://www.w3.org/2000/svg"
   xmlns:sodipodi="http://sodipodi.sourceforge.net/DTD/sodipodi-0.dtd"
   xmlns:inkscape="http://www.inkscape.org/namespaces/inkscape"
   version="1.1"
   id="svg4489"
   xml:space="preserve"
   width="793.70081"
   height="559.37012"
   viewBox="0 0 793.70081 559.37012"
   sodipodi:docname="Pdf.svg"
   inkscape:version="0.92pre2 r"><metadata
     id="metadata4495"><rdf:RDF><cc:Work
         rdf:about=""><dc:format>image/svg+xml</dc:format><dc:type
           rdf:resource="http://purl.org/dc/dcmitype/StillImage" /><dc:title></dc:title></cc:Work></rdf:RDF></metadata><defs
     id="defs4493" /><sodipodi:namedview
     pagecolor="#ffffff"
     bordercolor="#666666"
     borderopacity="1"
     objecttolerance="10"
     gridtolerance="10"
     guidetolerance="10"
     inkscape:pageopacity="0"
     inkscape:pageshadow="2"
     inkscape:window-width="1366"
     inkscape:window-height="704"
     id="namedview4491"
     showgrid="false"
     inkscape:zoom="0.28508749"
     inkscape:cx="1135.6755"
     inkscape:cy="140.92596"
     inkscape:window-x="0"
     inkscape:window-y="27"
     inkscape:window-maximized="1"
     inkscape:current-layer="g4497" /><g
     id="g4497"
     inkscape:groupmode="layer"
     inkscape:label="Pdf"
     transform="matrix(1.3333333,0,0,-1.3333333,0,559.37013)"><path
       d="m 163.2903,162.9986 h 12.5422 l -0.002,17.5442 6.1677,-11.5883 h 8.6178 l 9.4184,17.602 -5.1267,13.1327 -8.6355,-16.1569 -9.769,18.3665 c -0.2449,0.3832 -0.5411,0.6953 -0.9111,0.9051 -0.4311,0.2545 -0.8674,0.3296 -1.3042,0.3552 h -7.956 c -0.8475,-0.0565 -1.5245,-0.3887 -2.0755,-0.9247 -0.5794,-0.5601 -0.8847,-1.2648 -0.9658,-2.0883 v -37.1475 z"
       style="fill:#ff6600;fill-opacity:1;fill-rule:nonzero;stroke:none"
       id="path4499"
       inkscape:connector-curvature="0" /><path
       d="m 244.9426,203.3872 c -0.2617,0 -0.5236,-0.004 -0.7849,-0.0104 l -3.9175,-9.9834 c 3.3633,1.9089 9.4371,1.4338 11.3556,-2.3502 l 11.1631,0.007 c -0.1579,7.7936 -8.7477,12.3366 -17.8163,12.3366 z m -14.9913,-36.2126 c 3.7346,-3.0855 9.3625,-4.6343 14.9913,-4.6343 9.8407,0 19.2662,4.6012 19.2662,13.7469 v 6.7938 c -0.0615,0.8708 -0.3716,1.4867 -0.7911,1.9902 -0.7977,0.8311 -1.5761,1.0445 -2.3494,1.0908 H 244.457 v -8.4164 h 7.8313 v -1.4584 c 0,-6.1722 -14.3459,-6.228 -14.3459,0 v 11.251 z"
       style="fill:#ff6600;fill-opacity:1;fill-rule:nonzero;stroke:none"
       id="path4501"
       inkscape:connector-curvature="0" /><path
       d="m 196.7488,203.1582 h 1.3615 9.0921 c 0.6967,-0.0306 1.3133,-0.237 1.8547,-0.6083 0.5015,-0.349 0.8481,-0.7965 1.0758,-1.3184 l 14.9652,-38.2337 h -12.6292 z"
       style="fill:#00afef;fill-opacity:1;fill-rule:evenodd;stroke:none"
       id="path4503"
       inkscape:connector-curvature="0" /><path
       d="m 240.8391,203.1582 h -10.447 c -0.8904,-0.0502 -1.4432,-0.3155 -1.8975,-0.6443 -0.5239,-0.4108 -0.8765,-0.8717 -1.0758,-1.3757 l -7.0191,-17.9509 6.2991,-16.1241 z"
       style="fill:#00afef;fill-opacity:1;fill-rule:evenodd;stroke:none"
       id="path4505"
       inkscape:connector-curvature="0" /><path
       d="m 281.1858,192.9359 h 5.6761 v -6.1401 h -5.6761 v -13.5301 c 0,-3.3018 2.918,-4.9872 6.0179,-4.3891 l 1.1041,0.2128 v -5.6332 l -0.8067,-0.1066 c -6.6866,-0.8847 -12.4024,2.8292 -12.4024,9.9161 v 29.8985 h 6.0871 z m 25.2162,-0.0218 c 1.6744,0.4141 3.5671,0.3957 5.2568,0.0575 l 0.7461,-0.1488 v -6.2439 l -1.0772,0.1749 c -1.6271,0.2642 -2.2362,0.5156 -3.8412,0.127 -1.8352,-0.4926 -3.5958,-1.7833 -3.5958,-3.8602 v -19.626 h -6.1404 v 19.626 c 0,5.2543 3.6584,8.9104 8.6517,9.8935 z m 30.9744,-10.8717 v 1.3977 c 0,2.8775 -3.2374,3.8373 -5.6047,3.8373 -2.1843,0 -4.4844,-0.8935 -5.8555,-2.6428 l -0.6347,-0.8092 -4.3336,4.1762 0.6044,0.667 c 2.6331,2.9075 6.6226,4.6426 10.5409,4.6426 5.9369,0 11.4236,-3.4327 11.4236,-9.8711 v -18.608 l -0.6347,-0.2115 c -3.778,-1.2591 -7.7799,-1.9142 -11.764,-1.8683 -6.1824,0.0714 -10.851,4.1003 -10.8238,10.4638 0.03,7.0532 5.6313,9.8674 11.9593,9.8674 1.7377,0 3.5079,-0.3605 5.1228,-1.0411 z m 28.3638,-10.2306 0.4235,2.0761 6.6639,19.048 h 6.5231 l -10.4559,-29.5945 h -6.4 l -10.4553,29.5945 h 6.5211 l 6.7164,-19.0565 z m 28.1126,3.1493 v -2.1381 c -0.0471,-2.9523 3.0069,-4.0369 5.4975,-4.0369 2.2586,0 4.5306,1.103 5.4677,3.2457 l 0.3918,0.8949 5.5423,-2.7714 -0.389,-0.8212 c -2.0006,-4.2236 -6.4193,-6.6354 -11.0128,-6.6354 -6.0503,0 -11.6915,3.587 -11.6915,10.139 v 10.4953 c 0,6.5849 5.614,10.1387 11.6915,10.1387 6.05,0 11.5307,-3.6219 11.5307,-10.1387 v -8.3719 z m 40.0546,-5.6398 v -6.1404 h -0.9286 c -6.3136,0 -10.3527,3.5484 -10.3527,9.9692 v 29.4783 h 6.1407 v -29.4783 c 0,-2.8072 1.4992,-3.8288 4.212,-3.8288 z m -96.531,-0.5884 v 7.5013 c -1.6945,0.5261 -3.5283,0.8691 -5.2832,0.8691 -2.8434,0 -5.6872,-0.468 -5.7118,-3.8977 -0.021,-2.9216 2.0058,-4.7936 4.8722,-4.8481 2.0364,-0.0388 4.1088,0.0281 6.1228,0.3754 z m 56.4764,11.673 h 11.1018 v 3.0342 c 0,2.8418 -3.2252,3.9444 -5.6043,3.9444 -2.4906,0 -5.5446,-1.0845 -5.4975,-4.0515 z"
       style="fill:#96989a;fill-opacity:1;fill-rule:evenodd;stroke:none"
       id="path4507"
       inkscape:connector-curvature="0" /><path
       d="m 384.264,224.3735 43.1345,-4.291 6.6668,0.4824 0.127,-1.8833 -46.7532,-7.253 -29.8449,0.8781 z m -93.7882,12.7205 13.9008,-1.22 -12.075,15.3794 -4.5842,-2.3522 z m 65.9718,-8.3123 -138.1617,12.1782 -7.492,5.353 -1.7062,-2.1416 8.8676,-9.171 86.3141,-16.3919 -11.2192,-5.2948 -38.7411,3.4427 0.2551,-3.7315 35.4966,-3.5014 6.3102,-5.286 43.4639,2.7498 48.6218,21.9941 c 6.0072,3.7437 29.7193,15.2291 22.8606,24.0641 -1.5092,1.675 -13.345,6.7966 -19.5137,4.9122 l -54.055,-24.5716 z"
       style="fill:#00afef;fill-opacity:1;fill-rule:evenodd;stroke:none"
       id="path4509"
       inkscape:connector-curvature="0" /></g></svg>